<mxfile host="app.diagrams.net" modified="2023-02-03T14:20:16.221Z" agent="5.0 (Macintosh)" etag="h8cgREQamD1zGAYOUjEk" version="20.8.13" type="github">
  <diagram name="Страница 1" id="EvdNrwvYntzyys9u909U">
    <mxGraphModel dx="1427" dy="669" grid="1" gridSize="10" guides="1" tooltips="1" connect="1" arrows="1" fold="1" page="1" pageScale="1" pageWidth="827" pageHeight="1169" math="0" shadow="0">
      <root>
        <mxCell id="0" />
        <mxCell id="1" parent="0" />
        <mxCell id="EDPT3-oYuf37WdUz8ms1-1" value="" style="endArrow=none;html=1;rounded=0;strokeWidth=2;fontFamily=Times New Roman;fontSize=14;" edge="1" parent="1" target="EDPT3-oYuf37WdUz8ms1-3">
          <mxGeometry width="50" height="50" relative="1" as="geometry">
            <mxPoint x="440" y="670" as="sourcePoint" />
            <mxPoint x="440" y="80" as="targetPoint" />
          </mxGeometry>
        </mxCell>
        <mxCell id="EDPT3-oYuf37WdUz8ms1-2" value="" style="endArrow=none;html=1;rounded=0;strokeWidth=2;fontFamily=Times New Roman;fontSize=14;entryX=0.5;entryY=1;entryDx=0;entryDy=0;" edge="1" parent="1" target="EDPT3-oYuf37WdUz8ms1-4">
          <mxGeometry width="50" height="50" relative="1" as="geometry">
            <mxPoint x="120" y="670" as="sourcePoint" />
            <mxPoint x="120" y="80" as="targetPoint" />
            <Array as="points">
              <mxPoint x="120" y="260" />
            </Array>
          </mxGeometry>
        </mxCell>
        <mxCell id="EDPT3-oYuf37WdUz8ms1-3" value="SMSC" style="rounded=0;whiteSpace=wrap;html=1;fontFamily=Times New Roman;fontSize=14;" vertex="1" parent="1">
          <mxGeometry x="400" y="40" width="80" height="40" as="geometry" />
        </mxCell>
        <mxCell id="EDPT3-oYuf37WdUz8ms1-4" value="ESME" style="rounded=0;whiteSpace=wrap;html=1;fontFamily=Times New Roman;fontSize=14;" vertex="1" parent="1">
          <mxGeometry x="80" y="40" width="80" height="40" as="geometry" />
        </mxCell>
        <mxCell id="EDPT3-oYuf37WdUz8ms1-5" value="&amp;nbsp;bind_transceiver_resp(1)&amp;nbsp; " style="endArrow=classic;html=1;rounded=0;strokeWidth=2;fontFamily=Times New Roman;fontSize=14;" edge="1" parent="1">
          <mxGeometry width="50" height="50" relative="1" as="geometry">
            <mxPoint x="440" y="160" as="sourcePoint" />
            <mxPoint x="120" y="160" as="targetPoint" />
          </mxGeometry>
        </mxCell>
        <mxCell id="EDPT3-oYuf37WdUz8ms1-7" value="" style="endArrow=classic;html=1;rounded=0;strokeWidth=2;fontFamily=Times New Roman;fontSize=14;" edge="1" parent="1">
          <mxGeometry width="50" height="50" relative="1" as="geometry">
            <mxPoint x="440" y="200" as="sourcePoint" />
            <mxPoint x="120" y="200" as="targetPoint" />
          </mxGeometry>
        </mxCell>
        <mxCell id="EDPT3-oYuf37WdUz8ms1-8" value="&lt;div&gt;&amp;nbsp; data_sm(1)&amp;nbsp; &lt;/div&gt;" style="edgeLabel;html=1;align=center;verticalAlign=middle;resizable=0;points=[];fontSize=14;fontFamily=Times New Roman;" vertex="1" connectable="0" parent="EDPT3-oYuf37WdUz8ms1-7">
          <mxGeometry x="0.0625" relative="1" as="geometry">
            <mxPoint as="offset" />
          </mxGeometry>
        </mxCell>
        <mxCell id="EDPT3-oYuf37WdUz8ms1-9" value="" style="endArrow=classic;html=1;rounded=0;strokeWidth=2;fontFamily=Times New Roman;fontSize=14;" edge="1" parent="1">
          <mxGeometry width="50" height="50" relative="1" as="geometry">
            <mxPoint x="440" y="640" as="sourcePoint" />
            <mxPoint x="120" y="640" as="targetPoint" />
          </mxGeometry>
        </mxCell>
        <mxCell id="EDPT3-oYuf37WdUz8ms1-10" value="&amp;nbsp;unbind_resp(4)&amp;nbsp; " style="edgeLabel;html=1;align=center;verticalAlign=middle;resizable=0;points=[];fontSize=14;fontFamily=Times New Roman;" vertex="1" connectable="0" parent="EDPT3-oYuf37WdUz8ms1-9">
          <mxGeometry x="0.0625" relative="1" as="geometry">
            <mxPoint as="offset" />
          </mxGeometry>
        </mxCell>
        <mxCell id="EDPT3-oYuf37WdUz8ms1-11" value="&amp;nbsp;unbind(4)&amp;nbsp; " style="endArrow=classic;html=1;rounded=0;strokeWidth=2;fontFamily=Times New Roman;fontSize=14;" edge="1" parent="1">
          <mxGeometry x="0.0188" width="50" height="50" relative="1" as="geometry">
            <mxPoint x="120" y="600" as="sourcePoint" />
            <mxPoint x="440" y="600" as="targetPoint" />
            <mxPoint as="offset" />
          </mxGeometry>
        </mxCell>
        <mxCell id="EDPT3-oYuf37WdUz8ms1-12" value="&lt;div&gt;&amp;nbsp;bind_transceiver(1)&amp;nbsp; &lt;br&gt;&lt;/div&gt;" style="endArrow=classic;html=1;rounded=0;strokeWidth=2;fontFamily=Times New Roman;fontSize=14;" edge="1" parent="1">
          <mxGeometry width="50" height="50" relative="1" as="geometry">
            <mxPoint x="120" y="120" as="sourcePoint" />
            <mxPoint x="440" y="120" as="targetPoint" />
          </mxGeometry>
        </mxCell>
        <mxCell id="EDPT3-oYuf37WdUz8ms1-16" value="&amp;nbsp;data_sm_resp(1)&amp;nbsp; " style="endArrow=classic;html=1;rounded=0;strokeWidth=2;fontFamily=Times New Roman;fontSize=14;" edge="1" parent="1">
          <mxGeometry width="50" height="50" relative="1" as="geometry">
            <mxPoint x="120" y="240" as="sourcePoint" />
            <mxPoint x="440" y="240" as="targetPoint" />
          </mxGeometry>
        </mxCell>
        <mxCell id="EDPT3-oYuf37WdUz8ms1-25" value="" style="endArrow=classic;html=1;rounded=0;strokeWidth=2;fontFamily=Times New Roman;fontSize=14;" edge="1" parent="1">
          <mxGeometry width="50" height="50" relative="1" as="geometry">
            <mxPoint x="440" y="360" as="sourcePoint" />
            <mxPoint x="120" y="360" as="targetPoint" />
          </mxGeometry>
        </mxCell>
        <mxCell id="EDPT3-oYuf37WdUz8ms1-26" value="&lt;div&gt;&amp;nbsp; data_sm(3)&amp;nbsp; &lt;/div&gt;" style="edgeLabel;html=1;align=center;verticalAlign=middle;resizable=0;points=[];fontSize=14;fontFamily=Times New Roman;" vertex="1" connectable="0" parent="EDPT3-oYuf37WdUz8ms1-25">
          <mxGeometry x="0.0625" relative="1" as="geometry">
            <mxPoint as="offset" />
          </mxGeometry>
        </mxCell>
        <mxCell id="EDPT3-oYuf37WdUz8ms1-27" value="" style="endArrow=classic;html=1;rounded=0;strokeWidth=2;fontFamily=Times New Roman;fontSize=14;" edge="1" parent="1">
          <mxGeometry width="50" height="50" relative="1" as="geometry">
            <mxPoint x="440" y="280" as="sourcePoint" />
            <mxPoint x="120" y="280" as="targetPoint" />
          </mxGeometry>
        </mxCell>
        <mxCell id="EDPT3-oYuf37WdUz8ms1-28" value="&lt;div&gt;&amp;nbsp; data_sm(2)&amp;nbsp; &lt;/div&gt;" style="edgeLabel;html=1;align=center;verticalAlign=middle;resizable=0;points=[];fontSize=14;fontFamily=Times New Roman;" vertex="1" connectable="0" parent="EDPT3-oYuf37WdUz8ms1-27">
          <mxGeometry x="0.0625" relative="1" as="geometry">
            <mxPoint as="offset" />
          </mxGeometry>
        </mxCell>
        <mxCell id="EDPT3-oYuf37WdUz8ms1-29" value="&amp;nbsp;data_sm_resp(3)&amp;nbsp; " style="endArrow=classic;html=1;rounded=0;strokeWidth=2;fontFamily=Times New Roman;fontSize=14;" edge="1" parent="1">
          <mxGeometry width="50" height="50" relative="1" as="geometry">
            <mxPoint x="120" y="480" as="sourcePoint" />
            <mxPoint x="440" y="480" as="targetPoint" />
          </mxGeometry>
        </mxCell>
        <mxCell id="EDPT3-oYuf37WdUz8ms1-30" value="&amp;nbsp;data_sm_resp(2)&amp;nbsp; " style="endArrow=classic;html=1;rounded=0;strokeWidth=2;fontFamily=Times New Roman;fontSize=14;" edge="1" parent="1">
          <mxGeometry width="50" height="50" relative="1" as="geometry">
            <mxPoint x="120" y="320" as="sourcePoint" />
            <mxPoint x="440" y="320" as="targetPoint" />
          </mxGeometry>
        </mxCell>
        <mxCell id="EDPT3-oYuf37WdUz8ms1-31" value="" style="endArrow=classic;html=1;rounded=0;strokeWidth=2;fontFamily=Times New Roman;fontSize=14;" edge="1" parent="1">
          <mxGeometry width="50" height="50" relative="1" as="geometry">
            <mxPoint x="120" y="400" as="sourcePoint" />
            <mxPoint x="440" y="400" as="targetPoint" />
          </mxGeometry>
        </mxCell>
        <mxCell id="EDPT3-oYuf37WdUz8ms1-32" value="&lt;div&gt;&amp;nbsp; data_sm(2)&amp;nbsp; &lt;/div&gt;" style="edgeLabel;html=1;align=center;verticalAlign=middle;resizable=0;points=[];fontSize=14;fontFamily=Times New Roman;" vertex="1" connectable="0" parent="EDPT3-oYuf37WdUz8ms1-31">
          <mxGeometry x="0.0625" relative="1" as="geometry">
            <mxPoint as="offset" />
          </mxGeometry>
        </mxCell>
        <mxCell id="EDPT3-oYuf37WdUz8ms1-33" value="" style="endArrow=classic;html=1;rounded=0;strokeWidth=2;fontFamily=Times New Roman;fontSize=14;" edge="1" parent="1">
          <mxGeometry width="50" height="50" relative="1" as="geometry">
            <mxPoint x="120" y="440" as="sourcePoint" />
            <mxPoint x="440" y="440" as="targetPoint" />
          </mxGeometry>
        </mxCell>
        <mxCell id="EDPT3-oYuf37WdUz8ms1-34" value="&lt;div&gt;&amp;nbsp; data_sm(3)&amp;nbsp; &lt;/div&gt;" style="edgeLabel;html=1;align=center;verticalAlign=middle;resizable=0;points=[];fontSize=14;fontFamily=Times New Roman;" vertex="1" connectable="0" parent="EDPT3-oYuf37WdUz8ms1-33">
          <mxGeometry x="0.0625" relative="1" as="geometry">
            <mxPoint as="offset" />
          </mxGeometry>
        </mxCell>
        <mxCell id="EDPT3-oYuf37WdUz8ms1-35" value="&amp;nbsp;data_sm_resp(2)&amp;nbsp; " style="endArrow=classic;html=1;rounded=0;strokeWidth=2;fontFamily=Times New Roman;fontSize=14;" edge="1" parent="1">
          <mxGeometry width="50" height="50" relative="1" as="geometry">
            <mxPoint x="440" y="520" as="sourcePoint" />
            <mxPoint x="120" y="520" as="targetPoint" />
          </mxGeometry>
        </mxCell>
        <mxCell id="EDPT3-oYuf37WdUz8ms1-36" value="&amp;nbsp;data_sm_resp(3)&amp;nbsp; " style="endArrow=classic;html=1;rounded=0;strokeWidth=2;fontFamily=Times New Roman;fontSize=14;" edge="1" parent="1">
          <mxGeometry width="50" height="50" relative="1" as="geometry">
            <mxPoint x="440" y="560" as="sourcePoint" />
            <mxPoint x="120" y="560" as="targetPoint" />
          </mxGeometry>
        </mxCell>
      </root>
    </mxGraphModel>
  </diagram>
</mxfile>
